<svg xmlns="http://www.w3.org/2000/svg" viewBox="0 0 32 32">
  <rect width="32" height="32" rx="6" fill="#1268b3"/>
  <g stroke="#ffffff" stroke-linecap="round" fill="none" transform="translate(16,13)">
    <!-- Sun arc -->
    <path d="M -7.5 4 A 8.5 8.5 0 1 1 7.5 4" stroke-width="2"/>
    <!-- Rays -->
    <line x1="0" y1="-10" x2="0" y2="-12.5" stroke-width="1.6"/>
    <line x1="3.8" y1="-9.2" x2="5" y2="-11.5" stroke-width="1.6"/>
    <line x1="7.1" y1="-6.5" x2="9.3" y2="-8.2" stroke-width="1.6"/>
    <line x1="9.2" y1="-2.5" x2="11.8" y2="-3.2" stroke-width="1.6"/>
    <line x1="-3.8" y1="-9.2" x2="-5" y2="-11.5" stroke-width="1.6"/>
    <line x1="-7.1" y1="-6.5" x2="-9.3" y2="-8.2" stroke-width="1.6"/>
    <line x1="-9.2" y1="-2.5" x2="-11.8" y2="-3.2" stroke-width="1.6"/>
    <!-- Waves -->
    <path d="M -6.5 8 Q -3.2 5.5 0 8 Q 3.2 10.5 6.5 8" stroke-width="1.4"/>
    <path d="M -5.5 11 Q -2.5 8.5 0.5 11 Q 3.5 13.5 6.5 11" stroke-width="1.4"/>
  </g>
</svg>
